PathFileType	4	(X/Y/Z)	S1_nor_fast_right.trc
DataRate	CameraRate	NumFrames	NumMarkers	Units	OrigDataRate	OrigDataStartFrame	OrigNumFrames
250.00	250.00	8	18	mm	250.00	4077	6523
Frame#	Time	c7	r_should	l_should	clavicle	r_upa	r_elb_l	r_elb_m	r_low	r_wri_l	r_wri_m	r_met	l_upa	l_elb_l	l_elb_m	l_low	l_wri_l	l_wri_m	l_met
	X1	Y1	Z1	X2	Y2	Z2	X3	Y3	Z3	X4	Y4	Z4	X5	Y5	Z5	X6	Y6	Z6	X7	Y7	Z7	X8	Y8	Z8	X9	Y9	Z9	X10	Y10	Z10	X11	Y11	Z11	X12	Y12	Z12	X13	Y13	Z13	X14	Y14	Z14	X15	Y15	Z15	X16	Y16	Z16	X17	Y17	Z17	X18	Y18	Z18
4077	16.30400	940.87830	1418.08228	184.41998	999.90454	1347.67676	353.77698	999.11768	1373.07214	-13.38723	1086.96484	1308.22449	163.96361	1001.41034	1137.64270	395.79099	1027.11768	1046.73389	403.69794	981.80426	1018.68866	319.52762	1056.00476	917.32977	378.28082	1162.45581	879.88660	391.64651	1140.02344	865.19305	320.00266	1201.67725	803.65295	403.26099	1010.11359	1151.69348	-63.77636	1021.75000	1067.89087	-79.46190	954.64337	1038.92944	-5.23598	984.21368	923.35132	-97.12684	1060.62427	836.51031	-80.16257	990.40881	823.73346	-96.59087	1081.52722	761.08514	-105.09937
4078	16.30800	940.58203	1418.08459	184.30234	999.40820	1347.91089	353.57809	998.80304	1373.03857	-13.47264	1086.67847	1308.24451	163.86786	1000.59961	1137.94141	395.79141	1026.35083	1047.28247	403.72577	981.27258	1018.98621	319.57214	1056.90454	918.03430	378.27188	1163.18811	881.86011	391.83167	1140.88110	867.19788	320.14655	1203.59631	806.01965	403.24832	1009.93988	1151.64636	-63.79719	1021.63531	1067.84839	-79.44782	954.52081	1038.86035	-5.24094	984.19592	923.28265	-97.08419	1060.64600	836.49298	-80.05779	990.45154	823.66418	-96.51368	1081.60974	761.06769	-104.95140
4079	16.31200	940.29620	1418.09705	184.19916	998.91235	1348.14111	353.37827	998.48566	1373.01111	-13.56275	1086.40186	1308.26489	163.79454	999.85034	1138.20032	395.77396	1025.57922	1047.81433	403.72925	980.73505	1019.32361	319.60654	1058.83801	918.25812	378.11780	1163.91321	883.85925	392.02881	1141.62439	869.24902	320.35593	1205.52295	808.42462	403.23303	1009.76874	1151.60205	-63.81565	1021.51538	1067.80298	-79.43239	954.38623	1038.80298	-5.25290	984.17480	923.20648	-97.03189	1060.66016	836.47754	-79.94037	990.48083	823.60468	-96.43238	1081.68677	761.04529	-104.79402
4080	16.31600	940.00830	1418.11304	184.09193	998.41144	1348.37500	353.17468	998.17554	1372.99316	-13.64952	1086.12585	1308.28674	163.72813	999.14648	1138.43555	395.75110	1024.81360	1048.35815	403.73636	980.23279	1019.64404	319.61902	1059.54492	919.08392	378.17825	1164.85132	885.97748	392.28427	1142.31641	871.33704	320.59949	1207.46350	810.87592	403.22925	1009.60181	1151.56335	-63.83073	1021.38422	1067.76208	-79.41637	954.24438	1038.75293	-5.26070	984.14130	923.13623	-96.96829	1060.66431	836.46271	-79.81564	990.50372	823.54517	-96.35023	1081.75085	761.04163	-104.63500
4081	16.32000	939.70416	1418.12634	183.98033	997.91553	1348.60950	352.98901	997.87433	1372.97229	-13.73584	1085.84717	1308.31738	163.67136	998.47565	1138.68774	395.72150	1024.06299	1048.89172	403.73029	979.73260	1019.96686	319.63123	1059.93115	920.07324	378.29483	1165.86047	888.14160	392.53976	1142.92310	873.40198	320.89288	1209.40295	813.38641	403.23193	1009.43304	1151.53027	-63.84148	1021.25513	1067.72241	-79.38770	954.10333	1038.70117	-5.26278	984.10211	923.07367	-96.90505	1060.66223	836.45270	-79.68198	990.52521	823.48022	-96.25703	1081.81042	761.04285	-104.45158
4082	16.32400	939.40082	1418.14465	183.86349	997.42505	1348.83899	352.80756	997.57776	1372.95349	-13.81668	1085.56848	1308.35449	163.60815	997.82513	1138.95911	395.70648	1023.32166	1049.40332	403.71594	979.62366	1020.23730	319.72092	1060.26917	921.15405	378.42261	1166.22693	890.13434	392.66110	1143.48340	875.44885	321.23947	1211.34253	815.94910	403.22589	1009.25995	1151.50195	-63.85466	1021.12292	1067.68518	-79.34789	953.95697	1038.65454	-5.26198	984.06055	923.01166	-96.83738	1060.65747	836.44385	-79.53268	990.53564	823.42426	-96.15819	1081.87390	761.05438	-104.25080
4083	16.32800	939.11206	1418.16235	183.75909	996.93726	1349.05359	352.62717	997.28540	1372.93481	-13.90432	1085.29846	1308.39941	163.55214	997.16486	1139.20776	395.70761	1022.60028	1049.91870	403.69550	980.01672	1020.41364	319.93716	1060.56018	922.28638	378.57907	1166.88708	892.23486	392.83636	1144.06909	877.54260	321.59155	1213.30847	818.57251	403.20834	1009.08734	1151.47400	-63.86169	1020.98999	1067.65198	-79.31895	953.80640	1038.62268	-5.26082	984.01575	922.95178	-96.76347	1060.64746	836.43561	-79.37111	990.53809	823.37561	-96.05064	1081.93152	761.07098	-104.04312
4084	16.33200	938.82300	1418.18164	183.64580	996.43915	1349.26929	352.44601	997.00226	1372.91516	-13.98601	1085.03418	1308.43860	163.50058	996.51086	1139.38135	395.72180	1021.88574	1050.46912	403.66650	979.86682	1020.67957	320.00305	1060.82861	923.46698	378.74817	1167.83435	894.47546	393.07999	1144.65576	879.68146	322.05124	1215.26074	821.24524	403.21579	1008.91028	1151.44727	-63.86745	1020.85889	1067.62549	-79.27589	953.64044	1038.58655	-5.26392	983.96558	922.89606	-96.68839	1060.62476	836.42438	-79.20466	990.54028	823.31635	-95.93596	1081.97974	761.08313	-103.82124
